<svg width="409" height="283" viewBox="0 0 409 283" fill="none" xmlns="http://www.w3.org/2000/svg">
<rect y="29" width="409" height="211" rx="18" fill="#DDDDE4"/>
<g clip-path="url(#clip0)">
<path d="M241.102 13.7737C244.318 20.6169 237.502 22.5553 229.695 26.2232C221.887 29.8911 216.044 33.8996 212.827 27.0563C209.611 20.2131 207.001 6.63045 218.046 1.44156C229.472 -3.92608 237.885 6.93042 241.102 13.7737Z" fill="#2F2E41"/>
<path d="M225.172 27.2316C230.977 27.2316 235.683 22.527 235.683 16.7236C235.683 10.9202 230.977 6.2156 225.172 6.2156C219.367 6.2156 214.661 10.9202 214.661 16.7236C214.661 22.527 219.367 27.2316 225.172 27.2316Z" fill="#FFB8B8"/>
<path d="M277.245 63.3246C276.881 62.8497 276.517 62.3833 276.149 61.9298C275.674 61.3394 275.196 60.7676 274.715 60.2142C269.268 53.9294 263.473 49.9719 257.093 49.5483H257.084L256.99 49.5398L244.275 61.9298L239.953 66.1397L240.047 66.3707L242.379 72.1764H283.244C281.403 69.1214 279.4 66.1666 277.245 63.3246V63.3246Z" fill="#2F2E41"/>
<path d="M213.742 20.9541L217.504 19.1866L216.98 13.7602L219.496 18.2508L221.295 17.406L220.989 14.2406L222.457 16.8602L235.819 10.5827C234.564 7.91268 232.299 5.85038 229.523 4.84955C226.747 3.84872 223.688 3.99134 221.017 5.24602L219.08 6.1558C216.409 7.41049 214.346 9.67447 213.345 12.4497C212.344 15.2249 212.487 18.2841 213.742 20.9541V20.9541Z" fill="#2F2E41"/>
<path d="M300.825 211.692H81.3556C79.4835 211.69 77.6887 210.945 76.3649 209.622C75.0412 208.299 74.2965 206.504 74.2944 204.633V72.7942C74.296 71.4231 74.8415 70.1085 75.8112 69.139C76.781 68.1694 78.0959 67.624 79.4674 67.6224H302.623C304.018 67.624 305.356 68.1788 306.343 69.1652C307.329 70.1515 307.884 71.4888 307.886 72.8837V204.633C307.884 206.504 307.139 208.299 305.815 209.622C304.491 210.945 302.697 211.69 300.825 211.692Z" fill="#F2F2F2"/>
<path d="M88.2028 204.633H293.977C295.793 204.633 297.535 203.911 298.819 202.628C300.103 201.344 300.825 199.603 300.825 197.787V85.8885C300.825 84.073 300.103 82.3319 298.819 81.0481C297.535 79.7644 295.793 79.0432 293.977 79.0432H88.2028C86.3868 79.0432 84.6452 79.7644 83.3611 81.0481C82.077 82.3319 81.3556 84.073 81.3556 85.8885V197.787C81.3556 199.603 82.077 201.344 83.3611 202.628C84.6452 203.911 86.3868 204.633 88.2028 204.633Z" fill="white"/>
<path d="M307.787 72.3905H74.1953V68.7965C74.198 66.9187 74.9457 65.1186 76.2743 63.7912C77.6029 62.4638 79.4039 61.7175 81.2822 61.7159H300.701C302.579 61.7175 304.38 62.4638 305.708 63.7912C307.037 65.1186 307.785 66.9187 307.787 68.7965V72.3905Z" fill="#4A7DCB"/>
<path d="M87.0747 68.8964C88.087 68.8964 88.9077 68.0759 88.9077 67.0638C88.9077 66.0517 88.087 65.2312 87.0747 65.2312C86.0623 65.2312 85.2416 66.0517 85.2416 67.0638C85.2416 68.0759 86.0623 68.8964 87.0747 68.8964Z" fill="white"/>
<path d="M94.0325 68.8964C95.0449 68.8964 95.8656 68.0759 95.8656 67.0638C95.8656 66.0517 95.0449 65.2312 94.0325 65.2312C93.0202 65.2312 92.1995 66.0517 92.1995 67.0638C92.1995 68.0759 93.0202 68.8964 94.0325 68.8964Z" fill="white"/>
<path d="M100.991 68.8964C102.003 68.8964 102.824 68.0759 102.824 67.0638C102.824 66.0517 102.003 65.2312 100.991 65.2312C99.9782 65.2312 99.1575 66.0517 99.1575 67.0638C99.1575 68.0759 99.9782 68.8964 100.991 68.8964Z" fill="white"/>
<path d="M197.511 180.366H179.109C178.031 180.364 176.998 179.936 176.236 179.174C175.473 178.412 175.045 177.379 175.043 176.301V157.904C175.045 156.827 175.473 155.794 176.236 155.032C176.998 154.27 178.031 153.841 179.109 153.84H197.511C198.589 153.841 199.622 154.27 200.384 155.032C201.146 155.794 201.575 156.827 201.576 157.904V176.301C201.575 177.379 201.146 178.412 200.384 179.174C199.622 179.936 198.589 180.364 197.511 180.366V180.366ZM179.109 154.696C178.258 154.696 177.442 155.035 176.84 155.636C176.239 156.238 175.9 157.054 175.899 157.904V176.301C175.9 177.152 176.239 177.967 176.84 178.569C177.442 179.171 178.258 179.509 179.109 179.51H197.511C198.362 179.509 199.178 179.171 199.779 178.569C200.381 177.967 200.719 177.152 200.72 176.301V157.904C200.719 157.054 200.381 156.238 199.779 155.636C199.178 155.035 198.362 154.696 197.511 154.696H179.109Z" fill="#CCCCCC"/>
<path d="M193.873 175.232H182.747C182.406 175.231 182.08 175.096 181.839 174.855C181.599 174.615 181.463 174.288 181.463 173.948V160.257C181.463 159.917 181.599 159.591 181.839 159.35C182.08 159.11 182.406 158.974 182.747 158.974H190.809C191.101 158.974 191.385 159.074 191.613 159.257L194.677 161.719C194.828 161.839 194.949 161.991 195.032 162.164C195.115 162.337 195.158 162.527 195.157 162.719V173.948C195.157 174.288 195.021 174.615 194.781 174.855C194.54 175.096 194.214 175.231 193.873 175.232V175.232ZM182.747 159.83C182.633 159.83 182.524 159.875 182.444 159.955C182.364 160.035 182.319 160.144 182.319 160.257V173.948C182.319 174.061 182.364 174.17 182.444 174.25C182.524 174.331 182.633 174.376 182.747 174.376H193.873C193.987 174.376 194.096 174.331 194.176 174.25C194.256 174.17 194.301 174.061 194.301 173.948V162.719C194.301 162.655 194.287 162.592 194.259 162.534C194.232 162.476 194.191 162.426 194.141 162.386L191.077 159.924C191.001 159.863 190.906 159.83 190.809 159.83H182.747Z" fill="#CCCCCC"/>
<path d="M191.734 164.964H184.886C184.773 164.964 184.664 164.918 184.584 164.838C184.503 164.758 184.458 164.649 184.458 164.536C184.458 164.422 184.503 164.313 184.584 164.233C184.664 164.153 184.773 164.108 184.886 164.108H191.734C191.847 164.108 191.956 164.153 192.036 164.233C192.116 164.313 192.161 164.422 192.161 164.536C192.161 164.649 192.116 164.758 192.036 164.838C191.956 164.918 191.847 164.964 191.734 164.964Z" fill="#CCCCCC"/>
<path d="M191.734 167.531H184.886C184.773 167.531 184.664 167.485 184.584 167.405C184.503 167.325 184.458 167.216 184.458 167.103C184.458 166.989 184.503 166.88 184.584 166.8C184.664 166.72 184.773 166.675 184.886 166.675H191.734C191.847 166.675 191.956 166.72 192.036 166.8C192.116 166.88 192.161 166.989 192.161 167.103C192.161 167.216 192.116 167.325 192.036 167.405C191.956 167.485 191.847 167.531 191.734 167.531Z" fill="#CCCCCC"/>
<path d="M191.734 170.098H184.886C184.773 170.098 184.664 170.052 184.584 169.972C184.503 169.892 184.458 169.783 184.458 169.67C184.458 169.556 184.503 169.447 184.584 169.367C184.664 169.287 184.773 169.242 184.886 169.242H191.734C191.847 169.242 191.956 169.287 192.036 169.367C192.116 169.447 192.161 169.556 192.161 169.67C192.161 169.783 192.116 169.892 192.036 169.972C191.956 170.052 191.847 170.098 191.734 170.098Z" fill="#CCCCCC"/>
<path d="M241.162 180.366H222.76C221.682 180.364 220.649 179.936 219.886 179.174C219.124 178.412 218.696 177.379 218.694 176.301V157.904C218.696 156.827 219.124 155.794 219.886 155.032C220.649 154.27 221.682 153.841 222.76 153.84H241.162C242.24 153.841 243.273 154.27 244.035 155.032C244.797 155.794 245.226 156.827 245.227 157.904V176.301C245.226 177.379 244.797 178.412 244.035 179.174C243.273 179.936 242.24 180.364 241.162 180.366V180.366ZM222.76 154.696C221.909 154.696 221.093 155.035 220.491 155.636C219.89 156.238 219.551 157.054 219.55 157.904V176.301C219.551 177.152 219.89 177.967 220.491 178.569C221.093 179.171 221.909 179.509 222.76 179.51H241.162C242.013 179.509 242.828 179.171 243.43 178.569C244.032 177.967 244.37 177.152 244.371 176.301V157.904C244.37 157.054 244.032 156.238 243.43 155.636C242.828 155.035 242.013 154.696 241.162 154.696H222.76Z" fill="#CCCCCC"/>
<path d="M237.952 171.809H225.97C225.629 171.809 225.303 171.673 225.062 171.433C224.821 171.192 224.686 170.866 224.686 170.525V163.68C224.686 163.34 224.821 163.014 225.062 162.773C225.303 162.532 225.629 162.397 225.97 162.397H237.952C238.292 162.397 238.619 162.532 238.86 162.773C239.1 163.014 239.236 163.34 239.236 163.68V170.525C239.236 170.866 239.1 171.192 238.86 171.433C238.619 171.673 238.292 171.809 237.952 171.809V171.809ZM225.97 163.252C225.856 163.252 225.747 163.297 225.667 163.378C225.587 163.458 225.542 163.567 225.542 163.68V170.525C225.542 170.639 225.587 170.748 225.667 170.828C225.747 170.908 225.856 170.953 225.97 170.953H237.952C238.066 170.953 238.174 170.908 238.255 170.828C238.335 170.748 238.38 170.639 238.38 170.525V163.68C238.38 163.567 238.335 163.458 238.255 163.378C238.174 163.297 238.066 163.252 237.952 163.252H225.97Z" fill="#CCCCCC"/>
<path d="M231.961 168.231C231.72 168.232 231.485 168.165 231.28 168.038L224.887 164.043C224.791 163.983 224.722 163.887 224.697 163.776C224.672 163.666 224.691 163.55 224.751 163.454C224.811 163.357 224.907 163.289 225.018 163.264C225.128 163.238 225.244 163.257 225.34 163.317L231.734 167.312C231.802 167.354 231.881 167.377 231.961 167.377C232.041 167.377 232.12 167.354 232.188 167.312L238.581 163.317C238.677 163.257 238.793 163.238 238.904 163.264C239.014 163.289 239.11 163.357 239.17 163.454C239.23 163.55 239.25 163.666 239.224 163.776C239.199 163.887 239.131 163.983 239.035 164.043L232.642 168.038C232.437 168.165 232.201 168.232 231.961 168.231V168.231Z" fill="#CCCCCC"/>
<path d="M153.86 180.366H135.458C134.38 180.364 133.347 179.936 132.585 179.174C131.823 178.412 131.394 177.379 131.393 176.301V157.904C131.394 156.827 131.823 155.794 132.585 155.032C133.347 154.27 134.38 153.841 135.458 153.84H153.86C154.938 153.841 155.971 154.27 156.733 155.032C157.495 155.794 157.924 156.827 157.925 157.904V176.301C157.924 177.379 157.495 178.412 156.733 179.174C155.971 179.936 154.938 180.364 153.86 180.366V180.366ZM135.458 154.696C134.607 154.696 133.791 155.035 133.19 155.636C132.588 156.238 132.249 157.054 132.248 157.904V176.301C132.249 177.152 132.588 177.967 133.19 178.569C133.791 179.171 134.607 179.509 135.458 179.51H153.86C154.711 179.509 155.527 179.171 156.128 178.569C156.73 177.967 157.069 177.152 157.07 176.301V157.904C157.069 157.054 156.73 156.238 156.128 155.636C155.527 155.035 154.711 154.696 153.86 154.696H135.458Z" fill="#CCCCCC"/>
<path d="M150.65 171.809H138.668C138.327 171.809 138.001 171.673 137.76 171.433C137.52 171.192 137.384 170.866 137.384 170.525V163.68C137.384 163.34 137.52 163.014 137.76 162.773C138.001 162.532 138.327 162.397 138.668 162.397H150.65C150.991 162.397 151.317 162.532 151.558 162.773C151.798 163.014 151.934 163.34 151.934 163.68V170.525C151.934 170.866 151.798 171.192 151.558 171.433C151.317 171.673 150.991 171.809 150.65 171.809V171.809ZM138.668 163.252C138.554 163.252 138.446 163.297 138.365 163.378C138.285 163.458 138.24 163.567 138.24 163.68V170.525C138.24 170.639 138.285 170.748 138.365 170.828C138.446 170.908 138.554 170.953 138.668 170.953H150.65C150.764 170.953 150.873 170.908 150.953 170.828C151.033 170.748 151.078 170.639 151.078 170.525V163.68C151.078 163.567 151.033 163.458 150.953 163.378C150.873 163.297 150.764 163.252 150.65 163.252H138.668Z" fill="#CCCCCC"/>
<path d="M148.751 171.809H140.139C139.989 171.809 139.841 171.769 139.711 171.694C139.581 171.619 139.473 171.511 139.398 171.381C139.323 171.251 139.283 171.103 139.283 170.953C139.283 170.803 139.323 170.655 139.398 170.525L141.992 166.033C142.067 165.903 142.175 165.795 142.305 165.72C142.435 165.645 142.583 165.605 142.733 165.605C142.883 165.605 143.031 165.645 143.161 165.72C143.291 165.795 143.399 165.903 143.474 166.033L145.15 168.934L146.121 167.254C146.196 167.123 146.304 167.015 146.434 166.94C146.564 166.865 146.712 166.826 146.862 166.826C147.012 166.826 147.16 166.865 147.29 166.94C147.42 167.015 147.528 167.123 147.603 167.254L149.492 170.525C149.568 170.655 149.607 170.803 149.607 170.953C149.607 171.103 149.568 171.251 149.492 171.381C149.417 171.511 149.309 171.619 149.179 171.694C149.049 171.769 148.901 171.809 148.751 171.809H148.751ZM148.751 170.953L146.862 167.681L145.521 170.004C145.483 170.069 145.429 170.123 145.364 170.161C145.299 170.198 145.225 170.218 145.15 170.218V170.218C145.075 170.218 145.001 170.198 144.936 170.161C144.871 170.123 144.817 170.069 144.779 170.004L142.733 166.461L140.139 170.953H148.751Z" fill="#CCCCCC"/>
<path d="M149.366 165.819C149.839 165.819 150.222 165.436 150.222 164.963C150.222 164.491 149.839 164.108 149.366 164.108C148.894 164.108 148.51 164.491 148.51 164.963C148.51 165.436 148.894 165.819 149.366 165.819Z" fill="#CCCCCC"/>
<path d="M354.018 277.3L348.772 277.3L346.276 257.068L354.019 257.069L354.018 277.3Z" fill="#FFB8B8"/>
<path d="M355.356 282.384L338.439 282.384V282.17C338.439 281.305 338.609 280.449 338.94 279.651C339.271 278.852 339.756 278.126 340.368 277.515C340.979 276.904 341.705 276.419 342.504 276.088C343.303 275.757 344.159 275.587 345.024 275.587H345.024L355.357 275.588L355.356 282.384Z" fill="#2F2E41"/>
<path d="M375.416 277.3L370.169 277.3L367.673 257.068L375.417 257.069L375.416 277.3Z" fill="#FFB8B8"/>
<path d="M376.754 282.384L359.837 282.384V282.17C359.837 281.305 360.007 280.449 360.338 279.651C360.669 278.852 361.154 278.126 361.765 277.515C362.377 276.904 363.103 276.419 363.901 276.088C364.7 275.757 365.557 275.587 366.421 275.587H366.422L376.754 275.588L376.754 282.384Z" fill="#2F2E41"/>
<path d="M373.843 268.53L368.984 267.052C368.622 266.942 368.3 266.728 368.059 266.436C367.818 266.145 367.668 265.788 367.629 265.412L363.099 222.489C363.095 222.437 363.072 222.389 363.034 222.353C362.996 222.318 362.946 222.298 362.894 222.298C362.842 222.293 362.79 222.308 362.749 222.341C362.708 222.374 362.682 222.421 362.676 222.473L355.088 264.058C355.041 264.31 354.945 264.551 354.805 264.765C354.665 264.98 354.483 265.165 354.27 265.308C354.057 265.452 353.818 265.551 353.567 265.601C353.315 265.651 353.056 265.65 352.805 265.598L346.594 264.319C346.139 264.224 345.733 263.967 345.452 263.597C345.17 263.227 345.031 262.767 345.062 262.303L349.677 194.144L380.977 190.768L376.326 266.805C376.295 267.294 376.08 267.753 375.724 268.089C375.367 268.425 374.896 268.612 374.407 268.614C374.216 268.614 374.026 268.585 373.843 268.53V268.53Z" fill="#2F2E41"/>
<path d="M373.813 134.788C379.618 134.788 384.324 130.083 384.324 124.28C384.324 118.477 379.618 113.772 373.813 113.772C368.008 113.772 363.302 118.477 363.302 124.28C363.302 130.083 368.008 134.788 373.813 134.788Z" fill="#FFB8B8"/>
<path d="M349.629 194.544L356.415 151.825C356.776 149.553 357.617 147.385 358.881 145.463C360.146 143.542 361.805 141.912 363.748 140.682C365.692 139.451 367.875 138.649 370.153 138.328C372.431 138.006 374.751 138.174 376.959 138.819V138.819C380.82 139.935 384.126 142.45 386.231 145.873C388.336 149.295 389.089 153.38 388.343 157.328L381.243 195.478L349.629 194.544Z" fill="#4A7DCB"/>
<path d="M376.715 202.188C377.24 201.841 377.683 201.384 378.012 200.848C378.341 200.312 378.548 199.71 378.619 199.085C378.691 198.46 378.624 197.827 378.424 197.231C378.224 196.635 377.896 196.089 377.463 195.633L384.479 182.049L376.577 182.892L371.126 195.663C370.408 196.442 370.001 197.456 369.982 198.515C369.962 199.574 370.332 200.603 371.021 201.407C371.71 202.212 372.67 202.735 373.72 202.879C374.769 203.023 375.835 202.777 376.715 202.188V202.188Z" fill="#FFB8B8"/>
<path d="M378.217 193.237C377.829 193.183 377.467 193.011 377.179 192.745L374.494 190.265C374.204 189.996 374.004 189.644 373.92 189.257C373.837 188.871 373.874 188.467 374.027 188.103L379.392 175.388L378.631 150.266C378.741 149.458 379.008 148.68 379.419 147.976C379.829 147.272 380.374 146.656 381.023 146.162C381.672 145.669 382.412 145.308 383.2 145.101C383.988 144.893 384.81 144.843 385.617 144.953C386.425 145.063 387.203 145.332 387.907 145.743C388.611 146.153 389.227 146.699 389.72 147.348C390.213 147.997 390.573 148.737 390.78 149.525C390.987 150.314 391.036 151.135 390.925 151.942L392.226 167.735C392.622 172.528 391.263 177.301 388.402 181.167L380.034 192.476C379.873 192.693 379.668 192.874 379.433 193.007C379.197 193.14 378.936 193.222 378.667 193.248C378.517 193.262 378.366 193.258 378.217 193.237V193.237Z" fill="#4A7DCB"/>
<path d="M313.284 118.555C313.399 119.173 313.648 119.759 314.013 120.271C314.379 120.783 314.852 121.208 315.4 121.518C315.948 121.827 316.557 122.012 317.184 122.061C317.811 122.109 318.441 122.02 319.03 121.799L328.807 133.555L331.111 125.951L321.474 115.953C321.036 114.989 320.26 114.218 319.292 113.788C318.325 113.357 317.233 113.297 316.223 113.617C315.214 113.938 314.357 114.618 313.815 115.528C313.274 116.438 313.085 117.515 313.284 118.555V118.555Z" fill="#FFB8B8"/>
<path d="M320.943 123.428C321.145 123.092 321.444 122.825 321.801 122.664L325.132 121.159C325.493 120.997 325.895 120.95 326.284 121.024C326.673 121.098 327.03 121.289 327.306 121.572L336.926 131.469L360.363 140.563C361.064 140.979 361.677 141.528 362.166 142.181C362.654 142.833 363.01 143.575 363.211 144.365C363.413 145.155 363.457 145.977 363.341 146.783C363.224 147.59 362.95 148.366 362.534 149.067C362.117 149.767 361.567 150.379 360.914 150.867C360.261 151.355 359.518 151.709 358.727 151.91C357.937 152.111 357.115 152.154 356.308 152.036C355.502 151.919 354.726 151.644 354.025 151.227L338.972 146.268C334.402 144.763 330.535 141.651 328.09 137.509L320.936 125.397C320.798 125.164 320.711 124.905 320.681 124.636C320.65 124.368 320.677 124.095 320.758 123.838C320.803 123.694 320.865 123.557 320.943 123.428V123.428Z" fill="#4A7DCB"/>
<path opacity="0.1" d="M382.339 160.716L381.911 174.407L374.027 188.102L380.61 172.84L382.339 160.716Z" fill="black"/>
<path d="M372.609 126.255C371.949 126.34 371.28 126.184 370.727 125.814C370.173 125.444 369.773 124.886 369.6 124.243C369.434 123.503 369.069 122.823 368.545 122.275C368.021 121.726 367.357 121.331 366.626 121.131C364.698 120.691 362.341 121.598 360.928 120.137C360.626 119.804 360.407 119.404 360.29 118.969C360.172 118.534 360.16 118.078 360.254 117.638C360.514 116.219 361.53 115.147 362.635 114.289C364.96 112.493 367.775 111.441 370.709 111.273C372.227 111.229 373.747 111.304 375.254 111.499C376.831 111.598 378.392 111.883 379.903 112.348C381.624 112.997 383.154 114.07 384.351 115.467C385.548 116.864 386.373 118.54 386.751 120.34C387.096 122.146 387.043 124.005 386.595 125.788C386.148 127.571 385.316 129.235 384.159 130.664C382.773 132.389 380.986 133.749 378.954 134.625C378.47 134.853 377.916 134.882 377.411 134.703C376.146 134.2 376.352 132.633 376.929 131.588C377.547 130.469 378.497 129.386 378.001 128.024C377.752 127.393 377.274 126.879 376.662 126.584C375.404 125.943 373.997 126.094 372.644 126.251L372.609 126.255Z" fill="#2F2E41"/>
<path d="M309.772 132.189H179.675C177.803 132.187 176.008 131.442 174.685 130.119C173.361 128.795 172.616 127.001 172.614 125.129V97.3203C172.616 95.4488 173.361 93.6544 174.685 92.331C176.008 91.0076 177.803 90.2632 179.675 90.2611H309.772C311.644 90.2632 313.439 91.0077 314.762 92.3311C316.086 93.6545 316.831 95.4488 316.833 97.3203V125.129C316.831 127.001 316.086 128.795 314.762 130.119C313.439 131.442 311.644 132.187 309.772 132.189V132.189Z" fill="white"/>
<path d="M309.772 132.403H179.675C177.746 132.401 175.897 131.634 174.533 130.27C173.169 128.907 172.402 127.058 172.4 125.13V97.3204C172.402 95.3921 173.169 93.5434 174.533 92.1799C175.897 90.8164 177.746 90.0494 179.675 90.0472H309.772C311.701 90.0494 313.55 90.8164 314.914 92.1799C316.277 93.5434 317.045 95.3921 317.047 97.3204V125.13C317.045 127.058 316.277 128.907 314.914 130.27C313.55 131.634 311.701 132.401 309.772 132.403ZM179.675 90.9029C177.973 90.9048 176.342 91.5816 175.138 92.7847C173.935 93.9878 173.258 95.619 173.256 97.3204V125.13C173.258 126.831 173.935 128.462 175.138 129.665C176.342 130.868 177.973 131.545 179.675 131.547H309.772C311.474 131.545 313.105 130.868 314.309 129.665C315.512 128.462 316.189 126.831 316.191 125.13V97.3204C316.189 95.619 315.512 93.9878 314.309 92.7847C313.105 91.5816 311.474 90.9048 309.772 90.9029H179.675Z" fill="#3F3D56"/>
<path d="M293.938 125.343H195.509C193.637 125.341 191.842 124.597 190.519 123.274C189.195 121.95 188.45 120.156 188.448 118.284V103.738C188.45 101.866 189.195 100.072 190.519 98.7486C191.842 97.4252 193.637 96.6808 195.509 96.6786H293.938C295.81 96.6808 297.604 97.4252 298.928 98.7486C300.252 100.072 300.997 101.866 300.999 103.738V118.284C300.997 120.156 300.252 121.95 298.928 123.274C297.604 124.597 295.81 125.341 293.938 125.343V125.343Z" fill="#F2F2F2"/>
<path d="M216.69 117.503C221.354 117.503 225.135 113.723 225.135 109.061C225.135 104.399 221.354 100.619 216.69 100.619C212.027 100.619 208.246 104.399 208.246 109.061C208.246 113.723 212.027 117.503 216.69 117.503Z" fill="#FF6584"/>
<path d="M287.821 124.492L275.901 114.497L264.188 104.676C263.879 104.417 263.488 104.275 263.084 104.276C262.681 104.277 262.291 104.42 261.983 104.68L250.307 114.547L247.455 116.957L243.155 113.351L230.086 102.394C229.777 102.135 229.387 101.993 228.983 101.994C228.58 101.995 228.19 102.138 227.881 102.398L214.856 113.406L201.625 124.587C201.558 124.643 201.51 124.719 201.487 124.804C201.465 124.889 201.469 124.978 201.499 125.061C201.529 125.143 201.584 125.214 201.656 125.264C201.728 125.315 201.814 125.341 201.902 125.341L229.028 125.289L237.614 125.272L237.53 125.343L263.125 125.294L287.547 125.247C287.635 125.247 287.72 125.22 287.792 125.169C287.864 125.119 287.918 125.048 287.948 124.965C287.978 124.883 287.982 124.793 287.959 124.708C287.936 124.624 287.888 124.548 287.821 124.492Z" fill="#3F3D56"/>
<path d="M399.572 283H317.406C317.292 283 317.183 282.955 317.103 282.875C317.023 282.794 316.978 282.686 316.978 282.572C316.978 282.459 317.023 282.35 317.103 282.27C317.183 282.189 317.292 282.144 317.406 282.144H399.572C399.686 282.144 399.794 282.189 399.875 282.27C399.955 282.35 400 282.459 400 282.572C400 282.686 399.955 282.794 399.875 282.875C399.794 282.955 399.686 283 399.572 283Z" fill="#CCCCCC"/>
<path d="M283.506 56.4364C283.164 55.8812 282.712 55.4013 282.179 55.0262C281.645 54.6511 281.041 54.3885 280.403 54.2545C280.169 54.2053 279.931 54.1753 279.693 54.1646L247.087 25.0206C246.447 24.3625 245.592 23.9545 244.678 23.8698C244.497 23.8491 244.316 23.8433 244.134 23.8527C243.382 23.8868 242.656 24.1394 242.045 24.5795C241.434 25.0196 240.964 25.6282 240.694 26.3307C240.423 27.0333 240.363 27.7995 240.521 28.5356C240.679 29.2717 241.048 29.9458 241.584 30.4755L254.067 41.3553L274.566 59.2174C274.582 59.5538 274.633 59.8877 274.715 60.2142C274.961 61.1601 275.488 62.0091 276.227 62.6486C276.966 63.2882 277.882 63.688 278.854 63.7952C279.74 63.8986 280.637 63.7504 281.443 63.3673C282.082 63.0686 282.648 62.6351 283.103 62.0967C283.15 62.041 283.193 61.9897 283.236 61.9298C283.834 61.1502 284.181 60.2067 284.229 59.2252C284.277 58.2437 284.025 57.2708 283.506 56.4364H283.506Z" fill="#FFB8B8"/>
<path d="M227.735 84.5237L227.431 72.1764L227.175 61.9298L226.999 54.7594L226.652 40.782C226.584 40.0337 226.299 39.3215 225.832 38.7324C225.365 38.1433 224.737 37.7027 224.024 37.4645C223.311 37.2263 222.545 37.2008 221.817 37.3911C221.09 37.5813 220.434 37.9791 219.929 38.5359C219.81 38.6631 219.703 38.8006 219.608 38.9466C219.081 39.701 218.844 40.62 218.941 41.535L219.703 61.9298L220.083 72.1764L220.571 85.2468C220.43 85.4388 220.303 85.6404 220.19 85.85C219.886 86.4269 219.702 87.0597 219.65 87.7098C219.598 88.36 219.678 89.014 219.887 89.632C220.104 90.2802 220.456 90.875 220.92 91.3772C221.384 91.8794 221.95 92.2776 222.579 92.5456C223.208 92.8136 223.887 92.9453 224.57 92.932C225.254 92.9188 225.927 92.7608 226.545 92.4686C227.263 92.1292 227.887 91.6181 228.36 90.9807C228.834 90.3432 229.143 89.5989 229.261 88.8136C229.379 88.0282 229.301 87.226 229.035 86.4778C228.769 85.7297 228.322 85.0585 227.735 84.5237H227.735Z" fill="#FFB8B8"/>
<path d="M257.093 49.5483L254.067 41.3553L249.171 28.084C248.818 27.1183 248.252 26.2446 247.515 25.5277C246.777 24.8108 245.888 24.269 244.913 23.9425C244.836 23.9169 244.755 23.8912 244.678 23.8698C243.733 23.5831 242.737 23.5043 241.759 23.6387C240.781 23.7731 239.844 24.1176 239.012 24.6484L222.523 35.1047C221.013 36.0601 219.933 37.5649 219.512 39.3013C219.091 41.0377 219.362 42.8696 220.267 44.41C222.329 47.9747 224.576 51.4291 226.999 54.7593C228.921 57.3734 232.498 57.6515 233.119 61.9298H245.277L257.585 50.8832L257.093 49.5483Z" fill="#CCCCCC"/>
<path d="M68.2934 149.679C73.77 149.679 78.2097 145.241 78.2097 139.766C78.2097 134.29 73.77 129.852 68.2934 129.852C62.8168 129.852 58.3771 134.29 58.3771 139.766C58.3771 145.241 62.8168 149.679 68.2934 149.679Z" fill="#A0616A"/>
<path d="M92.638 132.942C92.7357 133.019 92.8304 133.102 92.9221 133.189C93.3777 133.618 93.7374 134.138 93.9777 134.716C94.2181 135.294 94.3336 135.916 94.3168 136.541C94.2999 137.166 94.1511 137.781 93.88 138.345C93.6089 138.909 93.2216 139.409 92.7436 139.813C92.6322 139.907 92.516 139.994 92.3954 140.076L93.0665 162.727C93.0856 163.469 92.8651 164.197 92.4376 164.803C92.0101 165.409 91.3985 165.862 90.6935 166.093L90.6526 166.102L72.2556 168.06C71.7555 168.114 71.2497 168.067 70.7676 167.924C70.2855 167.781 69.8365 167.543 69.4467 167.225C69.0568 166.908 68.7338 166.516 68.4963 166.073C68.2587 165.629 68.1113 165.144 68.0627 164.643C68.014 164.143 68.065 163.637 68.2127 163.157C68.3604 162.676 68.6019 162.229 68.9232 161.843C69.2445 161.456 69.6393 161.136 70.0848 160.903C70.5303 160.669 71.0176 160.526 71.5186 160.482L84.6328 159.328L86.9008 139.711C86.7525 139.58 86.6135 139.438 86.485 139.287C85.7739 138.446 85.401 137.371 85.4386 136.27C85.4762 135.169 85.9217 134.121 86.6885 133.33C87.4554 132.539 88.4889 132.062 89.5883 131.99C90.6878 131.918 91.7747 132.257 92.638 132.942H92.638Z" fill="#A0616A"/>
<path d="M84.6254 277.738H89.5755L91.93 258.651H84.6245L84.6254 277.738Z" fill="#A0616A"/>
<path d="M83.3629 276.123L93.1108 276.122H93.1112C93.9269 276.122 94.7348 276.283 95.4884 276.595C96.2421 276.907 96.927 277.364 97.5038 277.941C98.0807 278.518 98.5383 279.202 98.8505 279.956C99.1626 280.709 99.3233 281.517 99.3233 282.333V282.534L83.3632 282.535L83.3629 276.123Z" fill="#2F2E41"/>
<path d="M35.4274 270.896L39.6803 273.428L51.4716 258.232L45.1945 254.496L35.4274 270.896Z" fill="#A0616A"/>
<path d="M35.1693 268.862L43.545 273.848L43.5453 273.848C44.2462 274.265 44.8581 274.817 45.346 275.47C45.8339 276.124 46.1882 276.867 46.3887 277.658C46.5892 278.448 46.632 279.271 46.5146 280.078C46.3973 280.885 46.122 281.661 45.7046 282.362L45.6014 282.535L31.8879 274.372L35.1693 268.862Z" fill="#2F2E41"/>
<path d="M90.7433 270.997H85.2006C84.7518 270.997 84.3187 270.832 83.985 270.532C83.6513 270.232 83.4407 269.818 83.394 269.372L77.8062 216.861C77.7921 216.729 77.7349 216.605 77.6434 216.509C77.5519 216.412 77.4312 216.348 77.2999 216.327C77.1686 216.306 77.0341 216.329 76.917 216.392C76.7999 216.455 76.7067 216.555 76.652 216.676L66.5714 238.991L48.7244 268.085C48.4934 268.458 48.1358 268.735 47.717 268.866C47.2982 268.997 46.8463 268.973 46.4439 268.798L39.3142 265.662C39.0784 265.558 38.8675 265.405 38.6952 265.214C38.523 265.022 38.3934 264.796 38.3151 264.551C38.2368 264.306 38.2116 264.046 38.2411 263.791C38.2706 263.535 38.3541 263.288 38.4862 263.067L54.8925 235.604L59.9242 212.464C58.3417 202.429 65.1259 187.51 65.1947 187.361L65.2283 187.288L83.9158 179.986L84.0095 180.1C91.3793 204.279 95.8702 230.299 92.5543 269.332C92.5134 269.785 92.3052 270.207 91.9704 270.514C91.6356 270.822 91.1981 270.994 90.7433 270.997V270.997Z" fill="#2F2E41"/>
<path d="M64.4754 189.733L64.3884 189.55C64.3468 189.462 60.1915 180.701 56.9883 171.336C56.3727 169.525 56.1399 167.606 56.3048 165.701C56.4698 163.796 57.0287 161.945 57.9463 160.267C58.8758 158.571 60.1474 157.087 61.6806 155.908C63.2138 154.73 64.9751 153.882 66.853 153.42V153.42C70.1131 152.638 73.5455 153.054 76.5247 154.591C79.5039 156.128 81.8318 158.683 83.0842 161.792C85.625 168.144 84.8152 174.924 84.0532 180.256L84.038 180.363L83.9408 180.41L64.4754 189.733Z" fill="#3F3D56"/>
<path d="M80.3166 134.166H64.5707V127.304C68.0267 125.931 71.4086 124.764 73.453 127.304C75.2733 127.304 77.0191 128.027 78.3063 129.314C79.5934 130.6 80.3166 132.346 80.3166 134.166V134.166Z" fill="#2F2E41"/>
<path d="M63.699 126.093C54.2858 126.093 51.651 137.889 51.651 144.543C51.651 148.255 53.3298 149.582 55.968 150.031L56.8996 145.064L59.0818 150.245C59.8228 150.249 60.6013 150.234 61.4084 150.219L62.1483 148.696L63.7981 150.192C70.406 150.202 75.7467 151.165 75.7467 144.543C75.7467 137.889 73.4361 126.093 63.699 126.093Z" fill="#2F2E41"/>
<path d="M107.594 283H25.4279C25.3145 283 25.2056 282.955 25.1253 282.875C25.0451 282.794 25 282.686 25 282.572C25 282.459 25.0451 282.35 25.1253 282.27C25.2056 282.189 25.3145 282.144 25.4279 282.144H107.594C107.708 282.144 107.817 282.189 107.897 282.27C107.977 282.35 108.022 282.459 108.022 282.572C108.022 282.686 107.977 282.794 107.897 282.875C107.817 282.955 107.708 283 107.594 283Z" fill="#CCCCCC"/>
<path d="M109.139 142.243H90.7374C89.6595 142.242 88.6262 141.813 87.864 141.051C87.1018 140.289 86.6731 139.256 86.6719 138.178V119.782C86.6731 118.704 87.1018 117.671 87.864 116.909C88.6262 116.147 89.6595 115.718 90.7374 115.717H109.139C110.217 115.718 111.25 116.147 112.013 116.909C112.775 117.671 113.204 118.704 113.205 119.782V138.178C113.204 139.256 112.775 140.289 112.013 141.051C111.25 141.813 110.217 142.242 109.139 142.243V142.243Z" fill="white"/>
<path d="M109.139 142.243H90.7374C89.6595 142.242 88.6262 141.813 87.864 141.051C87.1018 140.289 86.6731 139.256 86.6719 138.178V119.782C86.6731 118.704 87.1018 117.671 87.864 116.909C88.6262 116.147 89.6595 115.718 90.7374 115.717H109.139C110.217 115.718 111.25 116.147 112.013 116.909C112.775 117.671 113.204 118.704 113.205 119.782V138.178C113.204 139.256 112.775 140.289 112.013 141.051C111.25 141.813 110.217 142.242 109.139 142.243V142.243ZM90.7374 116.573C89.8864 116.574 89.0706 116.912 88.4689 117.514C87.8672 118.115 87.5287 118.931 87.5278 119.782V138.178C87.5287 139.029 87.8672 139.845 88.4689 140.446C89.0706 141.048 89.8864 141.386 90.7374 141.387H109.139C109.99 141.386 110.806 141.048 111.408 140.446C112.009 139.845 112.348 139.029 112.349 138.178V119.782C112.348 118.931 112.009 118.115 111.408 117.514C110.806 116.912 109.99 116.574 109.139 116.573H90.7374Z" fill="#3F3D56"/>
<path d="M105.93 134.756H93.9471C93.6067 134.755 93.2803 134.62 93.0396 134.379C92.799 134.139 92.6636 133.813 92.6632 133.472V124.488C92.6636 124.147 92.799 123.821 93.0396 123.581C93.2803 123.34 93.6067 123.205 93.9471 123.204H97.3203C97.5397 123.203 97.7556 123.259 97.9472 123.366C98.1387 123.473 98.2994 123.628 98.4138 123.815L99.3545 125.343H105.93C106.27 125.344 106.596 125.479 106.837 125.72C107.078 125.96 107.213 126.287 107.213 126.627V133.472C107.213 133.813 107.078 134.139 106.837 134.379C106.596 134.62 106.27 134.755 105.93 134.756V134.756Z" fill="#4A7DCB"/>
<path d="M105.54 139.295C105.6 139.404 105.655 139.517 105.706 139.633C105.959 140.205 106.089 140.824 106.086 141.45C106.083 142.075 105.948 142.694 105.69 143.263C105.432 143.833 105.056 144.342 104.587 144.757C104.118 145.171 103.567 145.482 102.97 145.669C102.831 145.712 102.69 145.748 102.547 145.776L94.3736 166.913C94.1033 167.604 93.6175 168.189 92.9882 168.582C92.3589 168.975 91.6196 169.155 90.8801 169.094L90.839 169.086L73.1233 163.755C72.6417 163.61 72.1935 163.371 71.8048 163.052C71.416 162.733 71.0943 162.34 70.8583 161.896C70.6223 161.451 70.4766 160.965 70.4297 160.464C70.3828 159.964 70.4355 159.459 70.585 158.978C70.7344 158.498 70.9775 158.052 71.3002 157.667C71.6229 157.281 72.0189 156.963 72.4652 156.731C72.9116 156.499 73.3995 156.358 73.9007 156.316C74.4019 156.273 74.9066 156.331 75.3855 156.485L87.9203 160.508L97.6247 143.308C97.5389 143.13 97.4658 142.945 97.4059 142.756C97.0771 141.705 97.1509 140.569 97.6129 139.569C98.0748 138.569 98.892 137.777 99.9057 137.345C100.919 136.914 102.057 136.874 103.099 137.235C104.14 137.595 105.01 138.329 105.54 139.295H105.54Z" fill="#A0616A"/>
</g>
<defs>
<clipPath id="clip0">
<rect width="375" height="283" fill="white" transform="translate(25)"/>
</clipPath>
</defs>
</svg>
